<?xml version="1.0" standalone="no"?>
<!DOCTYPE svg PUBLIC "-//W3C//DTD SVG 20010904//EN"
 "http://www.w3.org/TR/2001/REC-SVG-20010904/DTD/svg10.dtd">
<svg version="1.0" xmlns="http://www.w3.org/2000/svg"
 width="500.000000pt" height="500.000000pt" viewBox="0 0 500.000000 500.000000"
 preserveAspectRatio="xMidYMid meet">

<g transform="translate(0.000000,500.000000) scale(0.100000,-0.100000)"
fill="#000000" stroke="none">
<path d="M3391 3549 c-223 -57 -392 -198 -496 -412 -69 -143 -96 -262 -102
-447 -8 -242 21 -409 102 -575 144 -300 405 -449 758 -433 127 6 226 34 329
95 73 43 165 134 198 197 14 25 28 46 32 46 5 0 8 -69 8 -154 l0 -154 73 -4
c39 -2 78 -2 85 0 18 6 18 918 0 923 -7 2 -147 3 -311 1 l-298 -3 3 -77 3 -77
208 -3 207 -2 0 -40 c0 -173 -101 -362 -245 -458 -108 -73 -190 -97 -330 -97
-182 0 -304 45 -411 150 -131 129 -195 297 -211 551 -16 266 55 492 202 640
116 118 220 158 410 159 97 0 134 -4 190 -22 134 -42 260 -146 332 -275 21
-37 43 -68 50 -68 23 0 173 73 173 85 0 19 -93 168 -140 224 -92 109 -235 193
-392 231 -113 27 -321 27 -427 -1z"/>
<path d="M737 3542 c-14 -3 -17 -17 -17 -88 l0 -84 348 -2 347 -3 3 -490 c4
-679 -9 -804 -94 -904 -53 -61 -108 -89 -203 -103 -71 -11 -91 -10 -146 4 -35
10 -82 29 -104 42 -75 48 -142 162 -157 269 -9 67 -6 65 -76 56 -130 -17 -128
-16 -128 -52 0 -104 67 -252 156 -346 74 -79 134 -114 240 -141 146 -38 297
-23 431 41 127 61 205 164 255 340 21 72 22 96 25 769 l4 695 -434 0 c-238 0
-441 -1 -450 -3z"/>
<path d="M2144 3541 c-2 -2 -4 -415 -4 -918 l0 -913 105 0 105 0 -2 916 -3
917 -98 1 c-54 1 -101 -1 -103 -3z"/>
</g>
</svg>
